<svg version="1.0" id="Layer_1" xmlns="http://www.w3.org/2000/svg" xmlns:xlink="http://www.w3.org/1999/xlink" viewBox="0 0 64 64" enable-background="new 0 0 64 64" xml:space="preserve" fill="#000000"><g id="SVGRepo_bgCarrier" stroke-width="0"></g><g id="SVGRepo_tracerCarrier" stroke-linecap="round" stroke-linejoin="round"></g><g id="SVGRepo_iconCarrier"> <g> <path fill="#42ADE2" d="M44.417,8.292c-1.632-1.63-4.217-1.63-5.846,0c-0.025,0.025-0.049,0.049-0.072,0.075l-0.84-2.478 c-0.171-0.503-0.666-0.859-1.214-0.859c-0.547,0-1.043,0.356-1.213,0.859l-0.842,2.478c-0.025-0.026-0.049-0.05-0.073-0.075 c-1.632-1.63-4.217-1.63-5.846,0c-1.631,1.631-1.631,4.215,0,5.846c0.025,0.025,0.049,0.05,0.075,0.073L7.884,36.985 c-1.172,1.172-1.172,3.071,0,4.243c1.172,1.171,3.071,1.171,4.242,0l21.258-21.258c0.025,0.026,0.049,0.05,0.073,0.075 c1.632,1.63,4.217,1.63,5.846,0c1.631-1.631,1.631-4.215,0-5.846c-0.024-0.024-0.049-0.049-0.075-0.073l2.478-0.842 c0.503-0.17,0.859-0.666,0.859-1.213s-0.356-1.043-0.859-1.213l-2.478-0.84c0.025-0.025,0.05-0.049,0.075-0.072 C46.046,12.507,46.046,9.922,44.417,8.292z M20.898,35.984l2.828,2.828l-9.192,9.192c-1.172,1.172-3.071,1.172-4.242,0 c-1.172-1.172-1.172-3.071,0-4.243L20.898,35.984z M43.002,29.402c-0.735-0.734-0.735-1.926,0-2.662 c0.735-0.734,1.927-0.734,2.662,0c0.735,0.734,0.735,1.926,0,2.662C44.93,30.137,43.737,30.137,43.002,29.402z"></path> <g> <path fill="#F76D57" d="M58.046,23.44l-1.486,1.486l-6.974-6.974l1.486-1.486c1.953-1.953,1.953-5.117,0-7.07l-2.2-2.2 c-1.953-1.953-5.118-1.953-7.07,0l-1.486,1.486l-3.08-3.08c-2.735-2.735-7.171-2.735-9.906,0L3.515,36.475 c-1.172,1.172-1.172,3.071,0,4.243l3.767,3.767c1.172,1.172,3.071,1.172,4.243,0l24.809-24.81c2.735-2.735,2.735-7.171,0-9.906 l-3.08-3.08l1.486-1.486c0.734-0.734,1.927-0.734,2.662,0c0.735,0.735,0.735,1.926,0,2.662l-1.486,1.486l6.974,6.974l1.486-1.486 c0.734-0.734,1.926-0.734,2.662,0c0.735,0.735,0.735,1.926,0,2.662l-1.486,1.486l4.95,4.95c0.735,0.734,0.735,1.926,0,2.662 C59.973,24.174,58.78,24.174,58.046,23.44z"></path> <path fill="#394240" d="M31.061,27.522l-2.828-2.828c-0.391-0.391-1.024-0.391-1.414,0c-0.391,0.391-0.391,1.024,0,1.414 l2.828,2.828c0.391,0.391,1.024,0.391,1.414,0C31.452,28.545,31.452,27.912,31.061,27.522z"></path> <path fill="#394240" d="M20.898,35.984l2.828,2.828l-9.192,9.192c-1.172,1.172-3.071,1.172-4.242,0c-1.172-1.172-1.172-3.071,0-4.243 L20.898,35.984z"></path> <path fill="#394240" d="M34.293,23.121c0.391,0.391,1.024,0.391,1.414,0l3.893-3.893c0.391-0.391,0.391-1.024,0-1.414 s-1.024-0.391-1.414,0l-3.893,3.893C33.902,22.097,33.902,22.73,34.293,23.121z"></path> <path fill="#394240" d="M43.002,29.402c-0.735,0.734-1.927,0.734-2.662,0c-0.735-0.735-0.735-1.926,0-2.662c0.735-0.734,1.927-0.734,2.662,0 C43.737,27.476,43.737,28.668,43.002,29.402z"></path> </g> </g> </g></svg>
